<svg width="110" height="80" viewBox="0 0 110 80" fill="none" xmlns="http://www.w3.org/2000/svg">
<path d="M110 25.2174C110 39.1446 98.7837 50.4348 84.9476 50.4348C71.1116 50.4348 59.8953 39.1446 59.8953 25.2174C59.8953 11.2902 71.1116 0 84.9476 0C98.7837 0 110 11.2902 110 25.2174Z" fill="url(#paint0_linear_410_2112)"/>
<path d="M110 61.4227C110 71.6826 101.722 80 91.5068 80H24.5888C11.0097 80 0 68.9418 0 55.2954C0 41.653 11.0097 30.5909 24.5888 30.5909C25.8067 30.5909 27.0037 30.6848 28.1774 30.8557C33.7303 19.7766 45.1503 12.174 58.3425 12.174C74.3053 12.174 87.678 23.3091 91.1913 38.2691C91.5418 39.7628 91.795 41.293 91.9404 42.8518V42.8558C101.95 43.0853 110 51.3089 110 61.4227V61.4227Z" fill="#BAC7CB" fill-opacity="0.4"/>
<g filter="url(#filter0_b_410_2112)">
<path d="M110 61.4227C110 71.6826 101.722 80 91.5068 80H24.5888C11.0097 80 0 68.9418 0 55.2954C0 41.653 11.0097 30.5909 24.5888 30.5909C25.8067 30.5909 27.0037 30.6848 28.1774 30.8557C33.7303 19.7766 45.1503 12.174 58.3425 12.174C74.3053 12.174 87.678 23.3091 91.1913 38.2691C91.5418 39.7628 91.795 41.293 91.9404 42.8518V42.8558C101.95 43.0853 110 51.3089 110 61.4227V61.4227Z" fill="url(#paint1_linear_410_2112)"/>
</g>
<g filter="url(#filter1_b_410_2112)">
<path fill-rule="evenodd" clip-rule="evenodd" d="M28.505 31.4891L28.095 31.4294C26.9466 31.2622 25.7772 31.1706 24.5888 31.1706C11.3268 31.1706 0.575916 41.9742 0.575916 55.2954C0.575916 68.6206 11.3267 79.4203 24.5888 79.4203H91.5068C101.405 79.4203 109.424 71.3613 109.424 61.4227C109.424 51.6259 101.626 43.6578 91.9273 43.4353L91.3645 43.4224V42.8791C91.2212 41.3568 90.9733 39.8621 90.6308 38.4025C87.1777 23.6988 74.0329 12.7537 58.3425 12.7537C45.3757 12.7537 34.1502 20.2258 28.6916 31.1168L28.505 31.4891ZM91.9404 42.8518V42.8558C101.95 43.0853 110 51.3089 110 61.4227C110 71.6826 101.722 80 91.5068 80H24.5888C11.0097 80 0 68.9418 0 55.2954C0 41.653 11.0097 30.5909 24.5888 30.5909C25.8067 30.5909 27.0037 30.6848 28.1774 30.8557C33.7303 19.7766 45.1503 12.174 58.3425 12.174C74.3053 12.174 87.678 23.3091 91.1913 38.2691C91.5418 39.7628 91.795 41.293 91.9404 42.8518Z" fill="url(#paint2_linear_410_2112)"/>
</g>
<defs>
<filter id="filter0_b_410_2112" x="-31.0378" y="-18.8639" width="172.076" height="129.902" filterUnits="userSpaceOnUse" color-interpolation-filters="sRGB">
<feFlood flood-opacity="0" result="BackgroundImageFix"/>
<feGaussianBlur stdDeviation="15.5189"/>
<feComposite in2="SourceAlpha" operator="in" result="effect1_backgroundBlur_410_2112"/>
<feBlend mode="normal" in="SourceGraphic" in2="effect1_backgroundBlur_410_2112" result="shape"/>
</filter>
<filter id="filter1_b_410_2112" x="-31.0378" y="-18.8639" width="172.076" height="129.902" filterUnits="userSpaceOnUse" color-interpolation-filters="sRGB">
<feFlood flood-opacity="0" result="BackgroundImageFix"/>
<feGaussianBlur stdDeviation="15.5189"/>
<feComposite in2="SourceAlpha" operator="in" result="effect1_backgroundBlur_410_2112"/>
<feBlend mode="normal" in="SourceGraphic" in2="effect1_backgroundBlur_410_2112" result="shape"/>
</filter>
<linearGradient id="paint0_linear_410_2112" x1="95.0395" y1="2.33469" x2="73.6999" y2="50.3258" gradientUnits="userSpaceOnUse">
<stop stop-color="#FFD88B"/>
<stop offset="1" stop-color="#FFA900"/>
</linearGradient>
<linearGradient id="paint1_linear_410_2112" x1="17.4215" y1="24.058" x2="95.8022" y2="79.5137" gradientUnits="userSpaceOnUse">
<stop offset="0.416176" stop-color="white" stop-opacity="0.7"/>
<stop offset="1" stop-color="white" stop-opacity="0"/>
</linearGradient>
<linearGradient id="paint2_linear_410_2112" x1="-8.42342" y1="30.047" x2="31.1373" y2="58.3153" gradientUnits="userSpaceOnUse">
<stop stop-color="white"/>
<stop offset="1" stop-color="white" stop-opacity="0"/>
</linearGradient>
</defs>
</svg>
