<svg width="110" height="95" viewBox="0 0 110 95" fill="none" xmlns="http://www.w3.org/2000/svg">
<g filter="url(#filter0_f_410_2260)">
<path d="M91 78C91 79.1046 76.0015 80 57.5 80C38.9985 80 24 79.1046 24 78C24 76.8954 38.9985 76 57.5 76C76.0015 76 91 76.8954 91 78Z" fill="#BAC7CB"/>
</g>
<path d="M110 48.9264C110 59.1192 101.722 67.3822 91.5068 67.3822H24.5888C11.0097 67.3822 0 56.3963 0 42.8393C0 29.2861 11.0097 18.2964 24.5888 18.2964C25.8067 18.2964 27.0037 18.3897 28.1774 18.5595C33.7303 7.55286 45.1503 0 58.3425 0C74.3053 0 87.678 11.0623 91.1913 25.9244C91.5418 27.4083 91.795 28.9284 91.9404 30.4771V30.481C101.95 30.7091 110 38.8788 110 48.9264V48.9264Z" fill="#BAC7CB"/>
<g filter="url(#filter1_b_410_2260)">
<path d="M110 48.9264C110 59.1192 101.722 67.3822 91.5068 67.3822H24.5888C11.0097 67.3822 0 56.3963 0 42.8393C0 29.2861 11.0097 18.2964 24.5888 18.2964C25.8067 18.2964 27.0037 18.3897 28.1774 18.5595C33.7303 7.55286 45.1503 0 58.3425 0C74.3053 0 87.678 11.0623 91.1913 25.9244C91.5418 27.4083 91.795 28.9284 91.9404 30.4771V30.481C101.95 30.7091 110 38.8788 110 48.9264V48.9264Z" fill="url(#paint0_linear_410_2260)"/>
</g>
<g filter="url(#filter2_b_410_2260)">
<path fill-rule="evenodd" clip-rule="evenodd" d="M28.6231 19.4156L28.0652 19.3349C26.9261 19.1701 25.7666 19.0799 24.5888 19.0799C11.4411 19.0799 0.783514 29.7202 0.783514 42.8393C0.783514 55.9622 11.441 66.5987 24.5888 66.5987H91.5068C101.291 66.5987 109.216 58.685 109.216 48.9264C109.216 39.3072 101.51 31.4828 91.9225 31.2643L91.1569 31.2469V30.514C91.0144 29.0147 90.7684 27.5425 90.4288 26.1047C86.9974 11.5889 73.9347 0.783514 58.3425 0.783514C45.4569 0.783514 34.3016 8.15999 28.8769 18.9124L28.6231 19.4156ZM91.9404 30.4771V30.481C101.95 30.7091 110 38.8788 110 48.9264C110 59.1192 101.722 67.3822 91.5068 67.3822H24.5888C11.0097 67.3822 0 56.3963 0 42.8393C0 29.2861 11.0097 18.2964 24.5888 18.2964C25.8067 18.2964 27.0037 18.3897 28.1774 18.5595C33.7303 7.55286 45.1503 0 58.3425 0C74.3053 0 87.678 11.0623 91.1913 25.9244C91.5418 27.4083 91.795 28.9284 91.9404 30.4771Z" fill="url(#paint1_linear_410_2260)"/>
</g>
<defs>
<filter id="filter0_f_410_2260" x="9.10184" y="61.1018" width="96.7963" height="33.7963" filterUnits="userSpaceOnUse" color-interpolation-filters="sRGB">
<feFlood flood-opacity="0" result="BackgroundImageFix"/>
<feBlend mode="normal" in="SourceGraphic" in2="BackgroundImageFix" result="shape"/>
<feGaussianBlur stdDeviation="3.5" result="effect1_foregroundBlur_410_2260"/>
</filter>
<filter id="filter1_b_410_2260" x="-31.0378" y="-31.0378" width="172.076" height="129.458" filterUnits="userSpaceOnUse" color-interpolation-filters="sRGB">
<feFlood flood-opacity="0" result="BackgroundImageFix"/>
<feGaussianBlur stdDeviation="15.5189"/>
<feComposite in2="SourceAlpha" operator="in" result="effect1_backgroundBlur_410_2260"/>
<feBlend mode="normal" in="SourceGraphic" in2="effect1_backgroundBlur_410_2260" result="shape"/>
</filter>
<filter id="filter2_b_410_2260" x="-31.0378" y="-31.0378" width="172.076" height="129.458" filterUnits="userSpaceOnUse" color-interpolation-filters="sRGB">
<feFlood flood-opacity="0" result="BackgroundImageFix"/>
<feGaussianBlur stdDeviation="15.5189"/>
<feComposite in2="SourceAlpha" operator="in" result="effect1_backgroundBlur_410_2260"/>
<feBlend mode="normal" in="SourceGraphic" in2="effect1_backgroundBlur_410_2260" result="shape"/>
</filter>
<linearGradient id="paint0_linear_410_2260" x1="17.4215" y1="11.8063" x2="108.5" y2="57.5" gradientUnits="userSpaceOnUse">
<stop offset="0.416176" stop-color="white" stop-opacity="0.7"/>
<stop offset="1" stop-color="white" stop-opacity="0"/>
</linearGradient>
<linearGradient id="paint1_linear_410_2260" x1="-8.42342" y1="17.7561" x2="30.9614" y2="46.084" gradientUnits="userSpaceOnUse">
<stop stop-color="white"/>
<stop offset="1" stop-color="white" stop-opacity="0"/>
</linearGradient>
</defs>
</svg>
