<svg width="111" height="91" viewBox="0 0 111 91" fill="none" xmlns="http://www.w3.org/2000/svg">
<path d="M111 49.4278C111 59.725 102.722 68.0728 92.5067 68.0728H25.5888C12.0097 68.0728 1 56.9743 1 43.2783C1 29.5863 12.0097 18.4839 25.5888 18.4839C26.8067 18.4839 28.0037 18.5782 29.1774 18.7497C34.7303 7.63027 46.1503 0 59.3425 0C75.3053 0 88.678 11.1757 92.1913 26.1901C92.5418 27.6892 92.795 29.2249 92.9404 30.7895V30.7934C102.95 31.0238 111 39.2773 111 49.4278V49.4278Z" fill="#BAC7CB" fill-opacity="0.4"/>
<g filter="url(#filter0_b_410_2218)">
<path d="M111 49.4278C111 59.725 102.722 68.0728 92.5067 68.0728H25.5888C12.0097 68.0728 1 56.9743 1 43.2783C1 29.5863 12.0097 18.4839 25.5888 18.4839C26.8067 18.4839 28.0037 18.5782 29.1774 18.7497C34.7303 7.63027 46.1503 0 59.3425 0C75.3053 0 88.678 11.1757 92.1913 26.1901C92.5418 27.6892 92.795 29.2249 92.9404 30.7895V30.7934C102.95 31.0238 111 39.2773 111 49.4278V49.4278Z" fill="url(#paint0_linear_410_2218)"/>
</g>
<g filter="url(#filter1_b_410_2218)">
<path fill-rule="evenodd" clip-rule="evenodd" d="M29.505 19.3854L29.0949 19.3255C27.9466 19.1577 26.7772 19.0657 25.5888 19.0657C12.3268 19.0657 1.57592 29.9086 1.57592 43.2783C1.57592 56.6519 12.3267 67.4909 25.5888 67.4909H92.5067C102.405 67.4909 110.424 59.4026 110.424 49.4278C110.424 39.5954 102.626 31.5983 92.9273 31.3751L92.3645 31.3621V30.8168C92.2212 29.289 91.9733 27.7888 91.6308 26.3239C88.1777 11.5667 75.0329 0.581818 59.3425 0.581818C46.3757 0.581818 35.1502 8.08111 29.6916 19.0117L29.505 19.3854ZM92.9404 30.7895V30.7934C102.95 31.0238 111 39.2773 111 49.4278C111 59.725 102.722 68.0728 92.5067 68.0728H25.5888C12.0097 68.0728 1 56.9743 1 43.2783C1 29.5863 12.0097 18.4839 25.5888 18.4839C26.8067 18.4839 28.0037 18.5782 29.1774 18.7497C34.7303 7.63027 46.1503 0 59.3425 0C75.3053 0 88.678 11.1757 92.1913 26.1901C92.5418 27.6892 92.795 29.2249 92.9404 30.7895Z" fill="url(#paint1_linear_410_2218)"/>
</g>
<g filter="url(#filter2_f_410_2218)">
<path d="M74.7172 48.5818C74.7172 63.3629 61.3736 75.3454 44.9135 75.3454C28.4534 75.3454 15.1099 63.3629 15.1099 48.5818C15.1099 33.8006 28.4534 21.8181 44.9135 21.8181C61.3736 21.8181 74.7172 33.8006 74.7172 48.5818Z" fill="#BAC7CB" fill-opacity="0.2"/>
</g>
<path d="M81.8547 66.2952C81.8547 73.8641 75.77 80 68.2614 80H19.0739C9.09263 80 1 71.8422 1 61.775C1 51.7108 9.09263 43.5501 19.0739 43.5501C19.969 43.5501 20.8489 43.6194 21.7116 43.7454C25.7932 35.5722 34.1874 29.9636 43.8842 29.9636C55.6176 29.9636 65.4471 38.1782 68.0295 49.2145C68.2871 50.3163 68.4732 51.4452 68.5801 52.5952V52.5981C75.9379 52.7674 81.8547 58.8341 81.8547 66.2952V66.2952Z" fill="#BAC7CB"/>
<g filter="url(#filter3_b_410_2218)">
<path d="M81.8547 66.2952C81.8547 73.8641 75.77 80 68.2614 80H19.0739C9.09263 80 1 71.8422 1 61.775C1 51.7108 9.09263 43.5501 19.0739 43.5501C19.969 43.5501 20.8489 43.6194 21.7116 43.7454C25.7932 35.5722 34.1874 29.9636 43.8842 29.9636C55.6176 29.9636 65.4471 38.1782 68.0295 49.2145C68.2871 50.3163 68.4732 51.4452 68.5801 52.5952V52.5981C75.9379 52.7674 81.8547 58.8341 81.8547 66.2952Z" fill="url(#paint2_linear_410_2218)"/>
</g>
<g filter="url(#filter4_b_410_2218)">
<path fill-rule="evenodd" clip-rule="evenodd" d="M22.0392 44.3812L21.6291 44.3213C20.7918 44.1989 19.9395 44.1319 19.0739 44.1319C9.40969 44.1319 1.57592 52.0331 1.57592 61.775C1.57592 71.5198 9.40963 79.4182 19.0739 79.4182H68.2614C75.453 79.4182 81.2788 73.5417 81.2788 66.2952C81.2788 59.1522 75.6139 53.342 68.567 53.1797L68.0042 53.1668V52.6226C67.8995 51.5093 67.7187 50.416 67.469 49.3483C64.9468 38.5693 55.3452 30.5454 43.8842 30.5454C34.4128 30.5454 26.2131 36.023 22.2258 44.0075L22.0392 44.3812ZM68.5801 52.5952V52.5981C75.9379 52.7674 81.8547 58.8341 81.8547 66.2952C81.8547 73.8641 75.77 80 68.2614 80H19.0739C9.09263 80 1 71.8422 1 61.775C1 51.7108 9.09263 43.5501 19.0739 43.5501C19.969 43.5501 20.8489 43.6194 21.7116 43.7454C25.7932 35.5722 34.1874 29.9636 43.8842 29.9636C55.6176 29.9636 65.4471 38.1782 68.0295 49.2145C68.2871 50.3163 68.4732 51.4452 68.5801 52.5952Z" fill="url(#paint3_linear_410_2218)"/>
</g>
<defs>
<filter id="filter0_b_410_2218" x="-30.0378" y="-31.0378" width="172.076" height="130.148" filterUnits="userSpaceOnUse" color-interpolation-filters="sRGB">
<feFlood flood-opacity="0" result="BackgroundImageFix"/>
<feGaussianBlur stdDeviation="15.5189"/>
<feComposite in2="SourceAlpha" operator="in" result="effect1_backgroundBlur_410_2218"/>
<feBlend mode="normal" in="SourceGraphic" in2="effect1_backgroundBlur_410_2218" result="shape"/>
</filter>
<filter id="filter1_b_410_2218" x="-30.0378" y="-31.0378" width="172.076" height="130.148" filterUnits="userSpaceOnUse" color-interpolation-filters="sRGB">
<feFlood flood-opacity="0" result="BackgroundImageFix"/>
<feGaussianBlur stdDeviation="15.5189"/>
<feComposite in2="SourceAlpha" operator="in" result="effect1_backgroundBlur_410_2218"/>
<feBlend mode="normal" in="SourceGraphic" in2="effect1_backgroundBlur_410_2218" result="shape"/>
</filter>
<filter id="filter2_f_410_2218" x="0.211706" y="6.91996" width="89.4037" height="83.3237" filterUnits="userSpaceOnUse" color-interpolation-filters="sRGB">
<feFlood flood-opacity="0" result="BackgroundImageFix"/>
<feBlend mode="normal" in="SourceGraphic" in2="BackgroundImageFix" result="shape"/>
<feGaussianBlur stdDeviation="7.44908" result="effect1_foregroundBlur_410_2218"/>
</filter>
<filter id="filter3_b_410_2218" x="-30.0378" y="-1.07421" width="142.93" height="112.112" filterUnits="userSpaceOnUse" color-interpolation-filters="sRGB">
<feFlood flood-opacity="0" result="BackgroundImageFix"/>
<feGaussianBlur stdDeviation="15.5189"/>
<feComposite in2="SourceAlpha" operator="in" result="effect1_backgroundBlur_410_2218"/>
<feBlend mode="normal" in="SourceGraphic" in2="effect1_backgroundBlur_410_2218" result="shape"/>
</filter>
<filter id="filter4_b_410_2218" x="-30.0378" y="-1.07421" width="142.93" height="112.112" filterUnits="userSpaceOnUse" color-interpolation-filters="sRGB">
<feFlood flood-opacity="0" result="BackgroundImageFix"/>
<feGaussianBlur stdDeviation="15.5189"/>
<feComposite in2="SourceAlpha" operator="in" result="effect1_backgroundBlur_410_2218"/>
<feBlend mode="normal" in="SourceGraphic" in2="effect1_backgroundBlur_410_2218" result="shape"/>
</filter>
<linearGradient id="paint0_linear_410_2218" x1="18.4215" y1="11.9273" x2="96.9918" y2="67.3157" gradientUnits="userSpaceOnUse">
<stop offset="0.416176" stop-color="white" stop-opacity="0.7"/>
<stop offset="1" stop-color="white" stop-opacity="0"/>
</linearGradient>
<linearGradient id="paint1_linear_410_2218" x1="-7.42342" y1="17.9381" x2="32.2343" y2="46.173" gradientUnits="userSpaceOnUse">
<stop stop-color="white"/>
<stop offset="1" stop-color="white" stop-opacity="0"/>
</linearGradient>
<linearGradient id="paint2_linear_410_2218" x1="13.8055" y1="38.7307" x2="78.8386" y2="73.8733" gradientUnits="userSpaceOnUse">
<stop offset="0.416176" stop-color="white" stop-opacity="0.7"/>
<stop offset="1" stop-color="white" stop-opacity="0"/>
</linearGradient>
<linearGradient id="paint3_linear_410_2218" x1="-5.19158" y1="43.1489" x2="23.9586" y2="63.9027" gradientUnits="userSpaceOnUse">
<stop stop-color="white"/>
<stop offset="1" stop-color="white" stop-opacity="0"/>
</linearGradient>
</defs>
</svg>
