<svg width="110" height="87" viewBox="0 0 110 87" fill="none" xmlns="http://www.w3.org/2000/svg">
<path d="M110 39.2378C110 47.4121 102.851 54.0389 94.0286 54.0389H36.2358C24.5084 54.0389 15 45.2285 15 34.3561C15 23.4868 24.5084 14.6732 36.2358 14.6732C37.2876 14.6732 38.3214 14.7481 39.335 14.8842C44.1307 6.05721 53.9935 0 65.3867 0C79.1728 0 90.7219 8.87171 93.7561 20.7907C94.0588 21.9808 94.2775 23.1999 94.4031 24.4419V24.445C103.048 24.6279 110 31.1799 110 39.2378V39.2378Z" fill="#BAC7CB" fill-opacity="0.4"/>
<g filter="url(#filter0_b_410_2230)">
<path d="M110 39.2378C110 47.4121 102.851 54.0389 94.0286 54.0389H36.2358C24.5084 54.0389 15 45.2285 15 34.3561C15 23.4868 24.5084 14.6732 36.2358 14.6732C37.2876 14.6732 38.3214 14.7481 39.335 14.8842C44.1307 6.05721 53.9935 0 65.3867 0C79.1728 0 90.7219 8.87171 93.7561 20.7907C94.0588 21.9808 94.2775 23.1999 94.4031 24.4419V24.445C103.048 24.6279 110 31.1799 110 39.2378V39.2378Z" fill="url(#paint0_linear_410_2230)"/>
</g>
<g filter="url(#filter1_b_410_2230)">
<path fill-rule="evenodd" clip-rule="evenodd" d="M39.6179 15.3889L39.2638 15.3413C38.2721 15.2081 37.2621 15.1351 36.2358 15.1351C24.7822 15.1351 15.4974 23.7426 15.4974 34.3561C15.4974 44.9725 24.7822 53.577 36.2358 53.577H94.0286C102.577 53.577 109.503 47.1562 109.503 39.2378C109.503 31.4324 102.768 25.084 94.3917 24.9068L93.9057 24.8965V24.4636C93.782 23.2508 93.5679 22.0599 93.2721 20.897C90.2899 9.18213 78.9375 0.461871 65.3867 0.461871C54.1881 0.461871 44.4934 6.4151 39.7791 15.0923L39.6179 15.3889ZM94.4031 24.4419V24.445C103.048 24.6279 110 31.1799 110 39.2378C110 47.4121 102.851 54.0389 94.0286 54.0389H36.2358C24.5084 54.0389 15 45.2285 15 34.3561C15 23.4868 24.5084 14.6732 36.2358 14.6732C37.2876 14.6732 38.3214 14.7481 39.335 14.8842C44.1307 6.05721 53.9935 0 65.3867 0C79.1728 0 90.7219 8.87171 93.7561 20.7907C94.0588 21.9808 94.2775 23.1999 94.4031 24.4419Z" fill="url(#paint1_linear_410_2230)"/>
</g>
<g filter="url(#filter2_f_410_2230)">
<path d="M68 50C68 62.1503 57.031 72 43.5 72C29.969 72 19 62.1503 19 50C19 37.8497 29.969 28 43.5 28C57.031 28 68 37.8497 68 50Z" fill="#BAC7CB" fill-opacity="0.2"/>
</g>
<path d="M74 52.7702C74 58.9722 68.4311 64 61.5591 64H16.5416C7.40655 64 0 57.3154 0 49.0664C0 40.8197 7.40655 34.1328 16.5416 34.1328C17.3608 34.1328 18.1661 34.1896 18.9557 34.2929C22.6913 27.5957 30.3738 23 39.2486 23C49.9872 23 58.9834 29.7311 61.3469 38.7742C61.5827 39.6771 61.753 40.6021 61.8508 41.5444V41.5468C68.5848 41.6855 74 46.6566 74 52.7702V52.7702Z" fill="#BAC7CB"/>
<g filter="url(#filter3_b_410_2230)">
<path d="M74 52.7702C74 58.9722 68.4311 64 61.5591 64H16.5416C7.40655 64 0 57.3154 0 49.0664C0 40.8197 7.40655 34.1328 16.5416 34.1328C17.3608 34.1328 18.1661 34.1896 18.9557 34.2929C22.6913 27.5957 30.3738 23 39.2486 23C49.9872 23 58.9834 29.7311 61.3469 38.7742C61.5827 39.6771 61.753 40.6021 61.8508 41.5444V41.5468C68.5848 41.6855 74 46.6566 74 52.7702V52.7702Z" fill="url(#paint2_linear_410_2230)"/>
</g>
<g filter="url(#filter4_b_410_2230)">
<path fill-rule="evenodd" clip-rule="evenodd" d="M19.2555 34.8138L18.8802 34.7647C18.1139 34.6644 17.3339 34.6095 16.5416 34.6095C7.69673 34.6095 0.527091 41.0838 0.527091 49.0664C0.527091 57.0513 7.69668 63.5233 16.5416 63.5233H61.5591C68.141 63.5233 73.4729 58.708 73.4729 52.7702C73.4729 46.9172 68.2882 42.1563 61.8388 42.0234L61.3237 42.0128V41.5669C61.2279 40.6546 61.0624 39.7588 60.8339 38.8839C58.5255 30.0515 49.7379 23.4767 39.2486 23.4767C30.5801 23.4767 23.0756 27.9651 19.4263 34.5076L19.2555 34.8138ZM61.8508 41.5444V41.5468C68.5848 41.6855 74 46.6566 74 52.7702C74 58.9722 68.4311 64 61.5591 64H16.5416C7.40655 64 0 57.3154 0 49.0664C0 40.8197 7.40655 34.1328 16.5416 34.1328C17.3608 34.1328 18.1661 34.1896 18.9557 34.2929C22.6913 27.5957 30.3738 23 39.2486 23C49.9872 23 58.9834 29.7311 61.3469 38.7742C61.5827 39.6771 61.753 40.6021 61.8508 41.5444Z" fill="url(#paint3_linear_410_2230)"/>
</g>
<path d="M38.5004 58C35.8113 59.6333 34 62.682 34 66.1761C34 66.301 34.0025 66.425 34.0074 66.5491C34.2266 72.4836 42.7734 72.4836 42.9934 66.5491C42.9975 66.425 43 66.301 43 66.1761C43 62.682 41.1895 59.6333 38.5004 58V58Z" fill="#00A3FF"/>
<path d="M61.5004 67C58.8113 68.6333 57 71.682 57 75.1761C57 75.301 57.0025 75.425 57.0074 75.5491C57.2266 81.4836 65.7734 81.4836 65.9934 75.5491C65.9975 75.425 66 75.301 66 75.1761C66 71.682 64.1895 68.6333 61.5004 67V67Z" fill="#00A3FF"/>
<path d="M83.5004 56C80.8113 57.6333 79 60.682 79 64.1761C79 64.301 79.0025 64.425 79.0074 64.5491C79.2266 70.4836 87.7734 70.4836 87.9934 64.5491C87.9975 64.425 88 64.301 88 64.1761C88 60.682 86.1895 57.6333 83.5004 56V56Z" fill="#00A3FF"/>
<defs>
<filter id="filter0_b_410_2230" x="-16.0378" y="-31.0378" width="157.076" height="116.114" filterUnits="userSpaceOnUse" color-interpolation-filters="sRGB">
<feFlood flood-opacity="0" result="BackgroundImageFix"/>
<feGaussianBlur in="BackgroundImage" stdDeviation="15.5189"/>
<feComposite in2="SourceAlpha" operator="in" result="effect1_backgroundBlur_410_2230"/>
<feBlend mode="normal" in="SourceGraphic" in2="effect1_backgroundBlur_410_2230" result="shape"/>
</filter>
<filter id="filter1_b_410_2230" x="-16.0378" y="-31.0378" width="157.076" height="116.114" filterUnits="userSpaceOnUse" color-interpolation-filters="sRGB">
<feFlood flood-opacity="0" result="BackgroundImageFix"/>
<feGaussianBlur in="BackgroundImage" stdDeviation="15.5189"/>
<feComposite in2="SourceAlpha" operator="in" result="effect1_backgroundBlur_410_2230"/>
<feBlend mode="normal" in="SourceGraphic" in2="effect1_backgroundBlur_410_2230" result="shape"/>
</filter>
<filter id="filter2_f_410_2230" x="4.10184" y="13.1018" width="78.7963" height="73.7963" filterUnits="userSpaceOnUse" color-interpolation-filters="sRGB">
<feFlood flood-opacity="0" result="BackgroundImageFix"/>
<feBlend mode="normal" in="SourceGraphic" in2="BackgroundImageFix" result="shape"/>
<feGaussianBlur stdDeviation="7.44908" result="effect1_foregroundBlur_410_2230"/>
</filter>
<filter id="filter3_b_410_2230" x="-31.0378" y="-8.03783" width="136.076" height="103.076" filterUnits="userSpaceOnUse" color-interpolation-filters="sRGB">
<feFlood flood-opacity="0" result="BackgroundImageFix"/>
<feGaussianBlur in="BackgroundImage" stdDeviation="15.5189"/>
<feComposite in2="SourceAlpha" operator="in" result="effect1_backgroundBlur_410_2230"/>
<feBlend mode="normal" in="SourceGraphic" in2="effect1_backgroundBlur_410_2230" result="shape"/>
</filter>
<filter id="filter4_b_410_2230" x="-31.0378" y="-8.03783" width="136.076" height="103.076" filterUnits="userSpaceOnUse" color-interpolation-filters="sRGB">
<feFlood flood-opacity="0" result="BackgroundImageFix"/>
<feGaussianBlur in="BackgroundImage" stdDeviation="15.5189"/>
<feComposite in2="SourceAlpha" operator="in" result="effect1_backgroundBlur_410_2230"/>
<feBlend mode="normal" in="SourceGraphic" in2="effect1_backgroundBlur_410_2230" result="shape"/>
</filter>
<linearGradient id="paint0_linear_410_2230" x1="30.0458" y1="9.46835" x2="94.0042" y2="58.5202" gradientUnits="userSpaceOnUse">
<stop offset="0.416176" stop-color="white" stop-opacity="0.7"/>
<stop offset="1" stop-color="white" stop-opacity="0"/>
</linearGradient>
<linearGradient id="paint1_linear_410_2230" x1="7.72523" y1="14.24" x2="39.9831" y2="39.2257" gradientUnits="userSpaceOnUse">
<stop stop-color="white"/>
<stop offset="1" stop-color="white" stop-opacity="0"/>
</linearGradient>
<linearGradient id="paint2_linear_410_2230" x1="11.7199" y1="30.1838" x2="60.5624" y2="68.6417" gradientUnits="userSpaceOnUse">
<stop offset="0.416176" stop-color="white" stop-opacity="0.7"/>
<stop offset="1" stop-color="white" stop-opacity="0"/>
</linearGradient>
<linearGradient id="paint3_linear_410_2230" x1="-5.66667" y1="33.8041" x2="18.9614" y2="53.3887" gradientUnits="userSpaceOnUse">
<stop stop-color="white"/>
<stop offset="1" stop-color="white" stop-opacity="0"/>
</linearGradient>
</defs>
</svg>
