<svg width="110" height="80" viewBox="0 0 110 80" fill="none" xmlns="http://www.w3.org/2000/svg">
<path d="M110 21C110 32.598 100.598 42 89 42C77.402 42 68 32.598 68 21C68 9.40202 77.402 0 89 0C100.598 0 110 9.40202 110 21Z" fill="url(#paint0_linear_410_2244)"/>
<path d="M100 42.9685C100 51.2951 92.4745 58.0453 83.188 58.0453H22.3535C10.0089 58.0453 0 49.0708 0 37.9959C0 26.9242 10.0089 17.9465 22.3535 17.9465C23.4606 17.9465 24.5488 18.0227 25.6158 18.1614C30.6639 9.17002 41.0457 3 53.0387 3C67.5503 3 79.7073 12.0369 82.9011 24.1779C83.2198 25.3901 83.45 26.632 83.5822 27.8971V27.9003C92.6822 28.0866 100 34.7606 100 42.9685V42.9685Z" fill="#BAC7CB" fill-opacity="0.4"/>
<g filter="url(#filter0_b_410_2244)">
<path d="M100 42.9685C100 51.2951 92.4745 58.0453 83.188 58.0453H22.3535C10.0089 58.0453 0 49.0708 0 37.9959C0 26.9242 10.0089 17.9465 22.3535 17.9465C23.4606 17.9465 24.5488 18.0227 25.6158 18.1614C30.6639 9.17002 41.0457 3 53.0387 3C67.5503 3 79.7073 12.0369 82.9011 24.1779C83.2198 25.3901 83.45 26.632 83.5822 27.8971V27.9003C92.6822 28.0866 100 34.7606 100 42.9685V42.9685Z" fill="url(#paint1_linear_410_2244)"/>
</g>
<g filter="url(#filter1_b_410_2244)">
<path fill-rule="evenodd" clip-rule="evenodd" d="M25.9136 18.6755L25.5409 18.6271C24.4969 18.4914 23.4338 18.417 22.3535 18.417C10.2971 18.417 0.52356 27.1848 0.52356 37.9959C0.52356 48.8101 10.297 57.5748 22.3535 57.5748H83.188C92.1863 57.5748 99.4764 51.0344 99.4764 42.9685C99.4764 35.0178 92.3876 28.5512 83.5702 28.3706L83.0586 28.3601V27.9192C82.9284 26.6838 82.703 25.4707 82.3916 24.2862C79.2525 12.3531 67.3026 3.47047 53.0387 3.47047C41.2506 3.47047 31.0457 9.53458 26.0833 18.3733L25.9136 18.6755ZM83.5822 27.8971V27.9003C92.6822 28.0866 100 34.7606 100 42.9685C100 51.2951 92.4745 58.0453 83.188 58.0453H22.3535C10.0089 58.0453 0 49.0708 0 37.9959C0 26.9242 10.0089 17.9465 22.3535 17.9465C23.4606 17.9465 24.5488 18.0227 25.6158 18.1614C30.6639 9.17002 41.0457 3 53.0387 3C67.5503 3 79.7073 12.0369 82.9011 24.1779C83.2198 25.3901 83.45 26.632 83.5822 27.8971Z" fill="url(#paint2_linear_410_2244)"/>
</g>
<path d="M34.5004 53C31.8113 54.6333 30 57.682 30 61.1761C30 61.301 30.0025 61.425 30.0074 61.5491C30.2266 67.4836 38.7734 67.4836 38.9934 61.5491C38.9975 61.425 39 61.301 39 61.1761C39 57.682 37.1895 54.6333 34.5004 53V53Z" fill="#00A3FF"/>
<path d="M58.5004 67C55.8113 68.6333 54 71.682 54 75.1761C54 75.301 54.0025 75.425 54.0074 75.5491C54.2266 81.4836 62.7734 81.4836 62.9934 75.5491C62.9975 75.425 63 75.301 63 75.1761C63 71.682 61.1895 68.6333 58.5004 67V67Z" fill="#00A3FF"/>
<path d="M82.5004 57C79.8113 58.6333 78 61.682 78 65.1761C78 65.301 78.0025 65.425 78.0074 65.5491C78.2266 71.4836 86.7734 71.4836 86.9934 65.5491C86.9975 65.425 87 65.301 87 65.1761C87 61.682 85.1895 58.6333 82.5004 57V57Z" fill="#00A3FF"/>
<defs>
<filter id="filter0_b_410_2244" x="-31.0378" y="-28.0378" width="162.076" height="117.121" filterUnits="userSpaceOnUse" color-interpolation-filters="sRGB">
<feFlood flood-opacity="0" result="BackgroundImageFix"/>
<feGaussianBlur stdDeviation="15.5189"/>
<feComposite in2="SourceAlpha" operator="in" result="effect1_backgroundBlur_410_2244"/>
<feBlend mode="normal" in="SourceGraphic" in2="effect1_backgroundBlur_410_2244" result="shape"/>
</filter>
<filter id="filter1_b_410_2244" x="-31.0378" y="-28.0378" width="162.076" height="117.121" filterUnits="userSpaceOnUse" color-interpolation-filters="sRGB">
<feFlood flood-opacity="0" result="BackgroundImageFix"/>
<feGaussianBlur stdDeviation="15.5189"/>
<feComposite in2="SourceAlpha" operator="in" result="effect1_backgroundBlur_410_2244"/>
<feBlend mode="normal" in="SourceGraphic" in2="effect1_backgroundBlur_410_2244" result="shape"/>
</filter>
<linearGradient id="paint0_linear_410_2244" x1="97.4594" y1="1.94424" x2="79.7669" y2="41.9955" gradientUnits="userSpaceOnUse">
<stop stop-color="#FFD88B"/>
<stop offset="1" stop-color="#FFA900"/>
</linearGradient>
<linearGradient id="paint1_linear_410_2244" x1="15.8377" y1="12.6447" x2="91.6881" y2="60.1784" gradientUnits="userSpaceOnUse">
<stop offset="0.416176" stop-color="white" stop-opacity="0.68"/>
<stop offset="1" stop-color="white" stop-opacity="0"/>
</linearGradient>
<linearGradient id="paint2_linear_410_2244" x1="-7.65766" y1="17.5052" x2="25.4551" y2="44.0093" gradientUnits="userSpaceOnUse">
<stop stop-color="white"/>
<stop offset="1" stop-color="white" stop-opacity="0"/>
</linearGradient>
</defs>
</svg>
