<svg width="111" height="80" viewBox="0 0 111 80" fill="none" xmlns="http://www.w3.org/2000/svg">
<path d="M110.761 48.5024C110.761 58.6068 102.482 66.7983 92.2673 66.7983H25.3493C11.7702 66.7983 0.760498 55.9076 0.760498 42.468C0.760498 29.0323 11.7702 18.1378 25.3493 18.1378C26.5672 18.1378 27.7642 18.2303 28.9379 18.3986C34.4908 7.48741 45.9108 0 59.103 0C75.0658 0 88.4385 10.9665 91.9518 25.6997C92.3023 27.1708 92.5555 28.6777 92.7009 30.213V30.2169C102.711 30.443 110.761 38.5419 110.761 48.5024V48.5024Z" fill="#BAC7CB" fill-opacity="0.4"/>
<g filter="url(#filter0_b_410_2253)">
<path d="M110.761 48.5024C110.761 58.6068 102.482 66.7983 92.2673 66.7983H25.3493C11.7702 66.7983 0.760498 55.9076 0.760498 42.468C0.760498 29.0323 11.7702 18.1378 25.3493 18.1378C26.5672 18.1378 27.7642 18.2303 28.9379 18.3986C34.4908 7.48741 45.9108 0 59.103 0C75.0658 0 88.4385 10.9665 91.9518 25.6997C92.3023 27.1708 92.5555 28.6777 92.7009 30.213V30.2169C102.711 30.443 110.761 38.5419 110.761 48.5024V48.5024Z" fill="url(#paint0_linear_410_2253)"/>
</g>
<g filter="url(#filter1_b_410_2253)">
<path fill-rule="evenodd" clip-rule="evenodd" d="M29.2655 19.0225L28.8554 18.9637C27.7071 18.799 26.5377 18.7087 25.3493 18.7087C12.0873 18.7087 1.33641 29.3486 1.33641 42.468C1.33641 55.5912 12.0872 66.2273 25.3493 66.2273H92.2673C102.165 66.2273 110.185 58.2905 110.185 48.5024C110.185 38.8541 102.387 31.0067 92.6878 30.7876L92.125 30.7749V30.2399C91.9817 28.7406 91.7338 27.2685 91.3913 25.8311C87.9382 11.3502 74.7934 0.570925 59.103 0.570925C46.1362 0.570925 34.9107 7.92981 29.4521 18.6558L29.2655 19.0225ZM92.7009 30.213V30.2169C102.711 30.443 110.761 38.5419 110.761 48.5024C110.761 58.6068 102.482 66.7983 92.2673 66.7983H25.3493C11.7702 66.7983 0.760498 55.9076 0.760498 42.468C0.760498 29.0323 11.7702 18.1378 25.3493 18.1378C26.5672 18.1378 27.7642 18.2303 28.9379 18.3986C34.4908 7.48741 45.9108 0 59.103 0C75.0658 0 88.4385 10.9665 91.9518 25.6997C92.3023 27.1708 92.5555 28.6778 92.7009 30.213Z" fill="url(#paint1_linear_410_2253)"/>
</g>
<path d="M74.1348 40.3386L53.7956 56.974H58.8528L49.8444 67.5747H55.1482L46.7607 80.0001L66.8659 65.7855H61.3152L70.1961 55.6465H63.848L74.1348 40.3386Z" fill="url(#paint2_radial_410_2253)"/>
<defs>
<filter id="filter0_b_410_2253" x="-30.2773" y="-31.0378" width="172.076" height="128.874" filterUnits="userSpaceOnUse" color-interpolation-filters="sRGB">
<feFlood flood-opacity="0" result="BackgroundImageFix"/>
<feGaussianBlur stdDeviation="15.5189"/>
<feComposite in2="SourceAlpha" operator="in" result="effect1_backgroundBlur_410_2253"/>
<feBlend mode="normal" in="SourceGraphic" in2="effect1_backgroundBlur_410_2253" result="shape"/>
</filter>
<filter id="filter1_b_410_2253" x="-30.2773" y="-31.0378" width="172.076" height="128.874" filterUnits="userSpaceOnUse" color-interpolation-filters="sRGB">
<feFlood flood-opacity="0" result="BackgroundImageFix"/>
<feGaussianBlur stdDeviation="15.5189"/>
<feComposite in2="SourceAlpha" operator="in" result="effect1_backgroundBlur_410_2253"/>
<feBlend mode="normal" in="SourceGraphic" in2="effect1_backgroundBlur_410_2253" result="shape"/>
</filter>
<linearGradient id="paint0_linear_410_2253" x1="18.182" y1="11.704" x2="95.7602" y2="67.4364" gradientUnits="userSpaceOnUse">
<stop offset="0.416176" stop-color="white" stop-opacity="0.7"/>
<stop offset="1" stop-color="white" stop-opacity="0"/>
</linearGradient>
<linearGradient id="paint1_linear_410_2253" x1="-7.66293" y1="17.6022" x2="31.4875" y2="46.0077" gradientUnits="userSpaceOnUse">
<stop stop-color="white"/>
<stop offset="1" stop-color="white" stop-opacity="0"/>
</linearGradient>
<radialGradient id="paint2_radial_410_2253" cx="0" cy="0" r="1" gradientUnits="userSpaceOnUse" gradientTransform="translate(60.4478 60.1694) rotate(90) scale(27.6022 19.0508)">
<stop stop-color="#FFD88B"/>
<stop offset="1" stop-color="#FFA900"/>
</radialGradient>
</defs>
</svg>
