<svg width="110" height="80" viewBox="0 0 110 80" fill="none" xmlns="http://www.w3.org/2000/svg">
<path d="M110 45.3264C110 54.7692 101.722 62.4243 91.5067 62.4243H24.5888C11.0097 62.4243 0 52.2467 0 39.6872C0 27.1313 11.0097 16.9501 24.5888 16.9501C25.8067 16.9501 27.0037 17.0366 28.1774 17.1939C33.7303 6.99713 45.1503 0 58.3425 0C74.3053 0 87.678 10.2484 91.1913 24.0169C91.5418 25.3916 91.795 26.7999 91.9404 28.2346V28.2382C101.95 28.4495 110 36.0182 110 45.3264V45.3264Z" fill="#BAC7CB" fill-opacity="0.4"/>
<g filter="url(#filter0_b_410_2172)">
<path d="M110 45.3264C110 54.7692 101.722 62.4243 91.5067 62.4243H24.5888C11.0097 62.4243 0 52.2467 0 39.6872C0 27.1313 11.0097 16.9501 24.5888 16.9501C25.8067 16.9501 27.0037 17.0366 28.1774 17.1939C33.7303 6.99713 45.1503 0 58.3425 0C74.3053 0 87.678 10.2484 91.1913 24.0169C91.5418 25.3916 91.795 26.7999 91.9404 28.2346V28.2382C101.95 28.4495 110 36.0182 110 45.3264V45.3264Z" fill="url(#paint0_linear_410_2172)"/>
</g>
<g filter="url(#filter1_b_410_2172)">
<path fill-rule="evenodd" clip-rule="evenodd" d="M28.505 17.7769L28.0949 17.7219C26.9466 17.568 25.7772 17.4837 24.5888 17.4837C11.3268 17.4837 0.575916 27.4269 0.575916 39.6872C0.575916 51.9511 11.3267 61.8907 24.5888 61.8907H91.5067C101.405 61.8907 109.424 54.4735 109.424 45.3264C109.424 36.3099 101.626 28.9764 91.9273 28.7716L91.3645 28.7598V28.2597C91.2212 26.8586 90.9733 25.483 90.6308 24.1396C87.1777 10.607 74.0329 0.533541 58.3425 0.533541C45.3757 0.533541 34.1502 7.41056 28.6916 17.4342L28.505 17.7769ZM91.9404 28.2346V28.2382C101.95 28.4495 110 36.0182 110 45.3264C110 54.7692 101.722 62.4243 91.5067 62.4243H24.5888C11.0097 62.4243 0 52.2467 0 39.6872C0 27.1313 11.0097 16.9501 24.5888 16.9501C25.8067 16.9501 27.0037 17.0366 28.1774 17.1939C33.7303 6.99713 45.1503 0 58.3425 0C74.3053 0 87.678 10.2484 91.1913 24.0169C91.5418 25.3916 91.795 26.7999 91.9404 28.2346Z" fill="url(#paint1_linear_410_2172)"/>
</g>
<path d="M81.6628 75.6963C78.6411 75.6963 76.1824 73.1863 76.1824 70.1016C76.1824 69.4814 76.675 68.979 77.282 68.979C77.889 68.979 78.381 69.4814 78.381 70.1016C78.381 71.9487 79.8534 73.4518 81.6628 73.4518C83.4727 73.4518 84.9451 71.9487 84.9451 70.1016C84.9451 68.2539 83.4727 66.7514 81.6628 66.7514H34.3951C33.7876 66.7514 33.2955 66.2485 33.2955 65.6288C33.2955 65.0092 33.7876 64.5068 34.3951 64.5068H81.6628C84.685 64.5068 87.1437 67.0163 87.1437 70.1016C87.1437 73.1863 84.685 75.6963 81.6628 75.6963V75.6963Z" fill="#9DB7BF"/>
<path d="M31.6119 71.3926H21.4457C20.8339 71.3926 20.3374 70.9432 20.3374 70.3887C20.3374 69.8338 20.8339 69.3843 21.4457 69.3843H31.6119C32.2236 69.3843 32.7196 69.8338 32.7196 70.3887C32.7196 70.9432 32.2236 71.3926 31.6119 71.3926Z" fill="#9DB7BF"/>
<path d="M60.9269 79.9999C57.9029 79.9999 55.4432 77.6186 55.4432 74.6921C55.4432 74.1042 55.9356 73.6271 56.5429 73.6271C57.1503 73.6271 57.6432 74.1042 57.6432 74.6921C57.6432 76.4445 59.1159 77.8705 60.9269 77.8705C62.7374 77.8705 64.2106 76.4445 64.2106 74.6921C64.2106 72.9397 62.7374 71.5137 60.9269 71.5137H35.8349C35.2276 71.5137 34.7352 71.0371 34.7352 70.4487C34.7352 69.8609 35.2276 69.3843 35.8349 69.3843H60.9269C63.9504 69.3843 66.4106 71.7656 66.4106 74.6921C66.4106 77.6186 63.9504 79.9999 60.9269 79.9999V79.9999Z" fill="#9DB7BF"/>
<path d="M50.3332 76.557H26.0489C25.4394 76.557 24.9447 76.0433 24.9447 75.4091C24.9447 74.7754 25.4394 74.2617 26.0489 74.2617H50.3332C50.9427 74.2617 51.4368 74.7754 51.4368 75.4091C51.4368 76.0433 50.9427 76.557 50.3332 76.557Z" fill="#9DB7BF"/>
<path d="M40.5707 62.2117H24.005C23.4105 62.2117 22.929 61.7617 22.929 61.2073C22.929 60.6529 23.4105 60.2034 24.005 60.2034H40.5707C41.1647 60.2034 41.6462 60.6529 41.6462 61.2073C41.6462 61.7617 41.1647 62.2117 40.5707 62.2117Z" fill="#9DB7BF"/>
<defs>
<filter id="filter0_b_410_2172" x="-31.0378" y="-31.0378" width="172.076" height="124.5" filterUnits="userSpaceOnUse" color-interpolation-filters="sRGB">
<feFlood flood-opacity="0" result="BackgroundImageFix"/>
<feGaussianBlur stdDeviation="15.5189"/>
<feComposite in2="SourceAlpha" operator="in" result="effect1_backgroundBlur_410_2172"/>
<feBlend mode="normal" in="SourceGraphic" in2="effect1_backgroundBlur_410_2172" result="shape"/>
</filter>
<filter id="filter1_b_410_2172" x="-31.0378" y="-31.0378" width="172.076" height="124.5" filterUnits="userSpaceOnUse" color-interpolation-filters="sRGB">
<feFlood flood-opacity="0" result="BackgroundImageFix"/>
<feGaussianBlur stdDeviation="15.5189"/>
<feComposite in2="SourceAlpha" operator="in" result="effect1_backgroundBlur_410_2172"/>
<feBlend mode="normal" in="SourceGraphic" in2="effect1_backgroundBlur_410_2172" result="shape"/>
</filter>
<linearGradient id="paint0_linear_410_2172" x1="17.4215" y1="10.9376" x2="91.3494" y2="67.769" gradientUnits="userSpaceOnUse">
<stop offset="0.416176" stop-color="white" stop-opacity="0.7"/>
<stop offset="1" stop-color="white" stop-opacity="0"/>
</linearGradient>
<linearGradient id="paint1_linear_410_2172" x1="-8.42342" y1="16.4496" x2="28.8619" y2="45.3974" gradientUnits="userSpaceOnUse">
<stop stop-color="white"/>
<stop offset="1" stop-color="white" stop-opacity="0"/>
</linearGradient>
</defs>
</svg>
